<svg xmlns="http://www.w3.org/2000/svg" viewBox="0 0 100 100" width="100" height="100"><g fill="#333"><path d="M42.267 65.392h-27c-.828 0-1.5-.672-1.5-1.5v-39c0-.4.16-.78.438-1.062l18-18c.282-.28.663-.438 1.062-.438h21c.828 0 1.5.672 1.5 1.5v36c0 .828-.672 1.5-1.5 1.5s-1.5-.672-1.5-1.5v-34.5h-18.88l-17.12 17.12v36.88h25.5c.828 0 1.5.672 1.5 1.5s-.672 1.5-1.5 1.5z"/><path d="M33.267 26.392h-18c-.828 0-1.5-.672-1.5-1.5s.672-1.5 1.5-1.5h16.5v-16.5c0-.828.672-1.5 1.5-1.5s1.5.672 1.5 1.5v18c0 .828-.672 1.5-1.5 1.5z"/></g><path d="M78.267 35.392c-.192 0-.39-.036-.573-.114-.56-.23-.927-.78-.927-1.386v-15c0-2.48-2.02-4.5-4.5-4.5h-12c-.828 0-1.5-.672-1.5-1.5s.672-1.5 1.5-1.5h12c4.137 0 7.5 3.366 7.5 7.5v11.38l3.438-3.44c.585-.584 1.536-.584 2.12 0 .586.586.586 1.537 0 2.122l-6 6c-.284.285-.668.438-1.058.438z" fill="#333"/><path d="M78.267 35.392c-.384 0-.768-.147-1.062-.438l-6-6c-.585-.585-.585-1.536 0-2.12.585-.586 1.536-.586 2.12 0l6 6c.586.584.586 1.535 0 2.12-.29.29-.674.438-1.058.438z"/><g fill="#333"><path d="M84.267 77.392c-.828 0-1.5-.672-1.5-1.5v-27c0-.828.672-1.5 1.5-1.5s1.5.672 1.5 1.5v27c0 .828-.672 1.5-1.5 1.5zM78.267 71.392c-.828 0-1.5-.672-1.5-1.5v-21c0-.828.672-1.5 1.5-1.5s1.5.672 1.5 1.5v21c0 .828-.672 1.5-1.5 1.5zM72.267 71.392c-.828 0-1.5-.672-1.5-1.5v-21c0-.828.672-1.5 1.5-1.5s1.5.672 1.5 1.5v21c0 .828-.672 1.5-1.5 1.5zM66.267 77.392c-.828 0-1.5-.672-1.5-1.5v-27c0-.828.672-1.5 1.5-1.5s1.5.672 1.5 1.5v27c0 .828-.672 1.5-1.5 1.5zM48.267 77.392c-.828 0-1.5-.672-1.5-1.5v-27c0-.828.672-1.5 1.5-1.5s1.5.672 1.5 1.5v27c0 .828-.672 1.5-1.5 1.5zM60.267 71.392c-.828 0-1.5-.672-1.5-1.5v-21c0-.828.672-1.5 1.5-1.5s1.5.672 1.5 1.5v21c0 .828-.672 1.5-1.5 1.5zM54.267 71.392c-.828 0-1.5-.672-1.5-1.5v-21c0-.828.672-1.5 1.5-1.5s1.5.672 1.5 1.5v21c0 .828-.672 1.5-1.5 1.5z"/><circle cx="13.5" cy="23.5" r=".5" transform="matrix(3 0 0 3 13.767 5.392)"/><circle cx="15.5" cy="23.5" r=".5" transform="matrix(3 0 0 3 13.767 5.392)"/><circle cx="19.5" cy="23.5" r=".5" transform="matrix(3 0 0 3 13.767 5.392)"/><circle cx="21.5" cy="23.5" r=".5" transform="matrix(3 0 0 3 13.767 5.392)"/></g><text style="line-height:100%;-inkscape-font-specification:'sans-serif, Normal';text-align:start" x="15.555" y="46.101" font-size="18.75" font-family="sans-serif" letter-spacing="0" word-spacing="0" fill="navy"><tspan x="15.555" y="46.101">Text</tspan></text><text style="line-height:100%;-inkscape-font-specification:'sans-serif, Normal';text-align:start" x="12.625" y="91.487" font-size="15" font-family="sans-serif" letter-spacing="0" word-spacing="0" fill="green"><tspan x="12.625" y="91.487">3nc0d1ng</tspan></text><path d="M25.507 17.105c3.46-3.46 6.31-6.292 6.336-6.292.025 0 .046 2.83.046 6.292v6.292H19.216l6.29-6.292z" fill="#ccc" stroke="#4a4a4a" stroke-width=".18"/></svg>