<?xml version="1.0" encoding="UTF-8" standalone="no"?>
<svg xmlns:rdf="http://www.w3.org/1999/02/22-rdf-syntax-ns#" xmlns="http://www.w3.org/2000/svg" xmlns:osb="http://www.openswatchbook.org/uri/2009/osb" height="100" width="100" version="1.1" enable-background="new" xmlns:cc="http://creativecommons.org/ns#" xmlns:xlink="http://www.w3.org/1999/xlink" viewBox="0 0 100 100" xmlns:dc="http://purl.org/dc/elements/1.1/">
  <g stroke="#4a4a4a" fill="#4a4a4a">
    <text font-size="41.756px" font-family="sans-serif" transform="scale(.96883 1.0322)" line-height="125%" style="word-spacing:0px;letter-spacing:0px" xml:space="preserve" y="28.576797" x="14.748651"><tspan opacity="0.96" font-family="Monaco" font-size="31.317px" line-height="125%" stroke="#4a4a4a" y="28.576797" x="14.748651" fill="#4a4a4a">Text</tspan></text>
  <text font-size="17.5px" transform="scale(.74879 1.3355)" line-height="125%" style="word-spacing:0px;letter-spacing:0px" xml:space="preserve" y="69.471489" x="23.900368" font-family="Monaco"><tspan font-size="17.5px" line-height="125%" stroke="#4a4a4a" y="69.471489" x="23.900368" font-family="Monaco" fill="#4a4a4a">3nc0d1ng</tspan></text>
    <g transform="matrix(.14208 0 0 .14208 33.906 35.709)">
      <path d="m230.12 153.57c2.354-7.671 3.916-15.579 4.648-23.591l-30.182-14.9c-0.114-2.236-0.312-4.475-0.605-6.711l26.97-20.15c-2.137-7.602-5.089-15.087-8.881-22.341l-33.422 3.779c-1.318-1.838-2.714-3.591-4.154-5.296l11.8-31.555c-6.05-5.379-12.61-10.054-19.53-13.997l-26.108 21.278c-2.083-0.822-4.195-1.56-6.332-2.216l-7.12-32.906c-7.91-1.242-15.95-1.675-24.01-1.257l-10.457 32.009c-2.193 0.432-4.38 0.939-6.553 1.552l-23.771-23.821c-3.633 1.608-7.219 3.419-10.742 5.436-3.523 2.016-6.898 4.191-10.127 6.508l8.502 32.555c-1.628 1.563-3.173 3.191-4.658 4.862l-32.895-7.194c-4.442 6.74-8.143 13.897-11.076 21.34l24.769 22.806c-0.519 2.176-0.952 4.37-1.3 6.581l-31.569 11.73c-0.106 7.972 0.603 15.992 2.175 23.937l33.188 5.801c0.741 2.104 1.546 4.197 2.463 6.263l-20.186 26.91c4.336 6.942 9.294 13.28 14.768 18.971l31.028-13.053c1.778 1.384 3.608 2.688 5.48 3.922l-2.439 33.57c7.279 3.428 14.889 6.086 22.696 7.941l19.043-27.752c2.229 0.205 4.47 0.325 6.718 0.355l16.107 29.576c7.869-1.029 15.702-2.877 23.375-5.586l1.016-33.67c0.99-0.518 1.98-1.034 2.957-1.596 0.979-0.558 1.928-1.15 2.875-1.742l29.549 16.178c6.22-5.245 11.781-11.063 16.652-17.327l-17.345-28.87c1.113-1.951 2.144-3.943 3.097-5.972l33.574-2.363zm-92.876-2.663c-17.86 10.22-40.625 4.02-50.847-13.84-10.223-17.86-4.033-40.623 13.827-50.845 17.86-10.225 40.63-4.032 50.85 13.825 10.223 17.86 4.032 40.626-13.829 50.849z" stroke="#4a4a4a" fill="#4a4a4a"/>
    </g>
  </g>
  <g id="g5358" transform="matrix(-.91118 0 0 -.91118 98.332 97.491)" stroke="#4a4a4a" fill="none">
    <path d="m28.137 34.573c-1.847-0.928-16.053 17.517-0.238 33.712" stroke-width="2"/>
    <path opacity="0.96" d="m30.5 37.429-3.3083-2.0185-3.3083-2.0185 3.4022-1.8558 3.4022-1.8558-0.09398 3.8743z" transform="matrix(.95862 .28468 -.28468 .95862 10.71 -6.6866)"/>
  </g>
  <use xlink:href="#g5358" transform="matrix(-1 0 0 -1 101.33 104.94)" height="100%" width="100%" stroke="#4a4a4a" y="0" x="0" fill="none"/>
</svg>
