<svg xmlns="http://www.w3.org/2000/svg" height="100" width="100" xmlns:xlink="http://www.w3.org/1999/xlink" viewBox="0 0 100 100">
  <g stroke="#4a4a4a" fill="#4a4a4a">
    <text font-size="41.756" font-family="sans-serif" transform="scale(.96883 1.0322)" y="28.577" x="14.749" word-spacing="0"
          letter-spacing="0">
      <tspan opacity=".96" font-family="Monaco" font-size="31.317" y="28.577" x="14.749">Text</tspan>
    </text>
    <text font-size="17.5" transform="scale(.7488 1.3355)" y="69.471" x="23.9" font-family="Monaco" word-spacing="0" letter-spacing="0">
      <tspan y="69.471" x="23.9">3nc0d1ng</tspan>
    </text>
    <path
        d="M66.6 57.528c.336-1.09.558-2.213.662-3.352l-4.288-2.117c-.017-.318-.045-.636-.086-.954l3.832-2.863c-.304-1.08-.724-2.144-1.262-3.174l-4.75.536c-.186-.26-.384-.51-.59-.753l1.677-4.483c-.86-.764-1.79-1.43-2.774-1.99l-3.71 3.024c-.295-.116-.595-.22-.898-.314L53.4 36.414c-1.124-.176-2.266-.238-3.41-.178l-1.487 4.548c-.312.06-.622.133-.93.22l-3.38-3.384c-.515.228-1.024.485-1.525.772-.5.286-.98.595-1.44.925l1.21 4.625c-.232.222-.45.453-.662.69l-4.674-1.02c-.63.956-1.157 1.973-1.574 3.03l3.52 3.24c-.074.31-.136.622-.185.936l-4.486 1.667c-.015 1.132.086 2.272.31 3.4l4.715.825c.105.3.22.596.35.89l-2.868 3.823c.616.986 1.32 1.887 2.098 2.695l4.408-1.854c.253.196.513.382.78.557l-.348 4.77c1.035.488 2.116.865 3.225 1.13l2.706-3.944c.316.03.635.046.954.05l2.29 4.202c1.117-.146 2.23-.408 3.32-.793l.144-4.784c.142-.073.282-.146.42-.226.14-.08.275-.163.41-.247l4.198 2.298c.884-.745 1.674-1.572 2.366-2.462l-2.464-4.1c.158-.28.304-.562.44-.85l4.77-.336zm-13.194-.378c-2.538 1.452-5.772.57-7.225-1.967-1.45-2.537-.572-5.77 1.966-7.224 2.537-1.453 5.773-.573 7.225 1.964 1.453 2.537.573 5.772-1.964 7.224z"
        stroke-width=".14208"/>
  </g>
  <g id="a" stroke="#4a4a4a" fill="none">
    <path d="M72.694 65.99c1.683.844 14.627-15.962.217-30.72" stroke-width="1.82236"/>
    <path opacity=".96" d="M71.64 62.98l2.367 2.62 2.366 2.62-3.453.74-3.453.738 1.087-3.36z" stroke-width=".91118"/>
  </g>
  <use xlink:href="#a" transform="rotate(180 50.665 52.47)" height="100%" width="100%" stroke="#4a4a4a" fill="none"/>
</svg>